<svg width="2700" height="1440" viewBox="0 0 2700 1440" fill="none" xmlns="http://www.w3.org/2000/svg">
  <rect width="2700" height="1440" fill="#FFFFFF"/>
  
  <!-- Header -->
  <rect x="0" y="0" width="2700" height="64" fill="#F8F8F8"/>
  <text x="32" y="40" fill="#1A1A1A" font-family="system-ui" font-size="24">SuperSurkhet Dashboard</text>
  
  <!-- Sidebar -->
  <rect x="0" y="64" width="240" height="1376" fill="#F8F8F8"/>
  <text x="24" y="120" fill="#666666" font-family="system-ui" font-size="14">NAVIGATION</text>
  <rect x="24" y="140" width="192" height="40" rx="8" fill="#EAEAEA"/>
  <text x="56" y="164" fill="#1A1A1A" font-family="system-ui" font-size="14">Overview</text>
  
  <!-- Main Content -->
  <rect x="264" y="88" width="800" height="400" rx="12" fill="#FFFFFF" stroke="#EAEAEA" stroke-width="1"/>
  <text x="296" y="128" fill="#1A1A1A" font-family="system-ui" font-size="18">Revenue Overview</text>
  <path d="M296 180 L1040 180" stroke="#EAEAEA" stroke-width="1"/>
  
  <!-- Stats Cards -->
  <rect x="1088" y="88" width="280" height="120" rx="12" fill="#FFFFFF" stroke="#EAEAEA" stroke-width="1"/>
  <text x="1120" y="128" fill="#666666" font-family="system-ui" font-size="14">Total Customers</text>
  <text x="1120" y="168" fill="#1A1A1A" font-family="system-ui" font-size="24">2,451</text>
  
  <rect x="1088" y="228" width="280" height="120" rx="12" fill="#FFFFFF" stroke="#EAEAEA" stroke-width="1"/>
  <text x="1120" y="268" fill="#666666" font-family="system-ui" font-size="14">Monthly Revenue</text>
  <text x="1120" y="308" fill="#1A1A1A" font-family="system-ui" font-size="24">रु 125,000</text>
  
  <!-- Table -->
  <rect x="264" y="512" width="1104" height="400" rx="12" fill="#FFFFFF" stroke="#EAEAEA" stroke-width="1"/>
  <text x="296" y="552" fill="#1A1A1A" font-family="system-ui" font-size="18">Recent Transactions</text>
  <path d="M296 604 L1344 604" stroke="#EAEAEA" stroke-width="1"/>
</svg>